<svg width="24" height="24" viewBox="0 0 24 24" fill="none" xmlns="http://www.w3.org/2000/svg">
<path d="M21 17.0001C21 18.657 19.6569 20.0001 18 20.0001C16.3431 20.0001 15 18.657 15 17.0001C15 15.3433 16.3431 14.0001 18 14.0001C19.6569 14.0001 21 15.3433 21 17.0001ZM21 17.0001V10.775C21 9.40986 19.6626 8.44592 18.3675 8.8776L11.7351 11.0884C10.1017 11.6329 9 13.1614 9 14.8832V19.0001M9 19.0001C9 20.657 7.65685 22.0001 6 22.0001C4.34315 22.0001 3 20.657 3 19.0001C3 17.3433 4.34315 16.0001 6 16.0001C7.65685 16.0001 9 17.3433 9 19.0001ZM21 12.0001V4.77497C21 3.40986 19.6626 2.44592 18.3675 2.8776L11.7351 5.08842C10.1017 5.63288 9 7.16143 9 8.88316V14.0001" stroke="white" stroke-opacity="0.5" stroke-width="1.5" stroke-linecap="round" stroke-linejoin="round"/>
</svg>
