<svg width="24" height="24" viewBox="0 0 24 24" fill="none" xmlns="http://www.w3.org/2000/svg">
<path d="M3 3.40039C3.33116 3.40039 3.59961 3.66884 3.59961 4V18.5C3.59961 18.7962 3.63717 19.0415 3.79785 19.2021C3.95853 19.3628 4.20379 19.4004 4.5 19.4004H21C21.3312 19.4004 21.5996 19.6688 21.5996 20C21.5996 20.3312 21.3312 20.5996 21 20.5996H4.5C3.82538 20.5996 3.30506 20.3988 2.95312 20.0469C2.60119 19.6949 2.40039 19.1746 2.40039 18.5V4C2.40039 3.66884 2.66884 3.40039 3 3.40039ZM6.57324 6.57715C6.80767 6.34275 7.18746 6.34273 7.42188 6.57715L10.7178 9.87305C10.874 10.0272 11.1255 10.0268 11.2812 9.87109L12.8877 8.27734C13.512 7.65769 14.5259 7.65982 15.1484 8.28418L19.1416 12.291L19.3984 12.5479V11C19.3984 10.6688 19.6669 10.4004 19.998 10.4004C20.3292 10.4004 20.5977 10.6689 20.5977 11V14.001L20.5859 14.1162C20.5782 14.1543 20.5671 14.1923 20.5518 14.2295C20.5223 14.3009 20.4795 14.3646 20.4277 14.418C20.4215 14.4219 20.4126 14.4275 20.4033 14.4355L20.4004 14.4385C20.3736 14.4631 20.346 14.4856 20.3174 14.5049L20.2275 14.5537C20.1545 14.5841 20.0773 14.5996 20 14.5996H17C16.6688 14.5996 16.4004 14.3312 16.4004 14C16.4004 13.6688 16.6688 13.4004 17 13.4004H18.5547L18.2998 13.1445L14.3018 9.12988L14.3008 9.12891L14.2383 9.0791C14.0836 8.97728 13.873 8.9918 13.7354 9.12793V9.12891L12.1289 10.7236C11.5455 11.3043 10.618 11.3392 9.99219 10.8291L9.87109 10.7197L6.57324 7.42578C6.33882 7.19136 6.33882 6.81157 6.57324 6.57715Z" fill="#D3D2E2" stroke="#1F1D60" stroke-width="0.3"/>
</svg>
