<svg width="20" height="20" viewBox="0 0 20 20" fill="none" xmlns="http://www.w3.org/2000/svg">
<g clip-path="url(#clip0_30066_1023)">
<path d="M12.3047 7.07032C12.3047 3.64438 9.36445 0.905163 5.86973 1.23844C2.82328 1.52899 0.585938 4.26188 0.585938 7.32216V15.0745C0.585938 16.9782 2.01145 18.6846 3.91254 18.7841C5.94 18.8902 7.61719 17.2777 7.61719 15.2734C7.61719 13.9883 8.28063 12.7826 9.39102 12.1357C11.1335 11.1205 12.3047 9.23243 12.3047 7.07032Z" stroke="#D1D1DC" stroke-width="1.17188" stroke-miterlimit="10" stroke-linecap="round" stroke-linejoin="round"/>
<path d="M9.96094 7.07031C9.96094 5.12867 8.38695 3.55469 6.44531 3.55469C4.50367 3.55469 2.92969 5.12867 2.92969 7.07031V9.3907C2.92969 9.95258 3.19258 10.4846 3.63941 10.8252C3.92031 11.0393 4.10156 11.3774 4.10156 11.7578C4.10156 12.405 3.57691 12.9297 2.92969 12.9297" stroke="#D1D1DC" stroke-width="1.17188" stroke-miterlimit="10" stroke-linecap="round" stroke-linejoin="round"/>
<path d="M2.92969 8.24219C2.92969 6.94777 3.97902 5.89844 5.27344 5.89844C6.56785 5.89844 7.61719 6.94777 7.61719 8.24219C7.61719 9.10969 7.14586 9.86715 6.44531 10.2724" stroke="#D1D1DC" stroke-width="1.17188" stroke-miterlimit="10" stroke-linecap="round" stroke-linejoin="round"/>
<path d="M16.0995 14.7292C13.8151 12.4447 13.8151 8.72716 16.0995 6.44275" stroke="#D1D1DC" stroke-width="1.17188" stroke-miterlimit="10" stroke-linecap="round" stroke-linejoin="round"/>
<path d="M17.7568 13.0719C16.3859 11.7011 16.3859 9.47086 17.7568 8.10004" stroke="#D1D1DC" stroke-width="1.17188" stroke-miterlimit="10" stroke-linecap="round" stroke-linejoin="round"/>
<path d="M19.414 11.4146C18.9564 10.9569 18.9564 10.2149 19.414 9.75732" stroke="#D1D1DC" stroke-width="1.17188" stroke-miterlimit="10" stroke-linecap="round" stroke-linejoin="round"/>
</g>
<defs>
<clipPath id="clip0_30066_1023">
<rect width="20" height="20" fill="white"/>
</clipPath>
</defs>
</svg>
