<svg width="50" height="50" viewBox="0 0 50 50" fill="none" xmlns="http://www.w3.org/2000/svg">
<rect x="0.5" y="0.5" width="49" height="49" rx="24.5" stroke="white"/>
<path d="M20.012 34.753C19.382 34.753 18.7499 34.5899 18.1689 34.2649C16.9669 33.5919 16.25 32.3689 16.25 30.9939V19.0061C16.25 17.6311 16.9669 16.4091 18.1689 15.7351C19.3749 15.0591 20.797 15.0871 21.976 15.8081L32.052 21.9741C33.115 22.6241 33.75 23.756 33.75 25C33.75 26.244 33.115 27.3749 32.052 28.0259L21.976 34.1919C21.365 34.5649 20.689 34.753 20.012 34.753ZM20.012 16.75C19.632 16.75 19.252 16.848 18.903 17.044C18.181 17.448 17.751 18.1821 17.751 19.0061V30.9939C17.751 31.8179 18.182 32.5521 18.903 32.9561C19.627 33.3621 20.483 33.3471 21.193 32.9131L31.269 26.7471C31.883 26.3711 32.25 25.718 32.25 25C32.25 24.282 31.883 23.629 31.269 23.253L21.193 17.0869C20.825 16.8629 20.419 16.75 20.012 16.75Z" fill="white"/>
</svg>
