<svg width="50" height="50" viewBox="0 0 50 50" fill="none" xmlns="http://www.w3.org/2000/svg">
<rect x="0.5" y="0.5" width="49" height="49" rx="24.5" stroke="white"/>
<path d="M21.5 34.75H19.5C18.091 34.75 17.25 33.909 17.25 32.5V17.5C17.25 16.091 18.091 15.25 19.5 15.25H21.5C22.909 15.25 23.75 16.091 23.75 17.5V32.5C23.75 33.909 22.909 34.75 21.5 34.75ZM19.5 16.75C18.911 16.75 18.75 16.911 18.75 17.5V32.5C18.75 33.089 18.911 33.25 19.5 33.25H21.5C22.089 33.25 22.25 33.089 22.25 32.5V17.5C22.25 16.911 22.089 16.75 21.5 16.75H19.5ZM30.5 34.75H28.5C27.091 34.75 26.25 33.909 26.25 32.5V17.5C26.25 16.091 27.091 15.25 28.5 15.25H30.5C31.909 15.25 32.75 16.091 32.75 17.5V32.5C32.75 33.909 31.909 34.75 30.5 34.75ZM28.5 16.75C27.911 16.75 27.75 16.911 27.75 17.5V32.5C27.75 33.089 27.911 33.25 28.5 33.25H30.5C31.089 33.25 31.25 33.089 31.25 32.5V17.5C31.25 16.911 31.089 16.75 30.5 16.75H28.5Z" fill="white"/>
</svg>
