<svg width="24" height="24" viewBox="0 0 24 24" fill="none" xmlns="http://www.w3.org/2000/svg">
<path d="M12 8.24993C9.932 8.24993 8.25 9.93193 8.25 11.9999C8.25 14.0679 9.932 15.7499 12 15.7499C14.068 15.7499 15.75 14.0679 15.75 11.9999C15.75 9.93193 14.068 8.24993 12 8.24993ZM12 14.2499C10.759 14.2499 9.75 13.2409 9.75 11.9999C9.75 10.7589 10.759 9.74993 12 9.74993C13.241 9.74993 14.25 10.7589 14.25 11.9999C14.25 13.2409 13.241 14.2499 12 14.2499ZM19.223 6.18194L13.723 2.74392C12.676 2.08992 11.325 2.08992 10.278 2.74392L4.778 6.18194C3.821 6.77994 3.25101 7.80992 3.25101 8.93792V15.0619C3.25101 16.1899 3.822 17.2199 4.778 17.8179L10.278 21.2559C10.801 21.5829 11.401 21.7459 12.001 21.7459C12.601 21.7459 13.2 21.5819 13.724 21.2559L19.224 17.8179C20.181 17.2199 20.751 16.1899 20.751 15.0619V8.93792C20.75 7.80992 20.179 6.77994 19.223 6.18194ZM19.25 15.0619C19.25 15.6689 18.942 16.2239 18.428 16.5459L12.928 19.9839C12.365 20.3359 11.636 20.3359 11.073 19.9839L5.573 16.5459C5.058 16.2239 4.75101 15.6699 4.75101 15.0619V8.93792C4.75101 8.33092 5.059 7.77594 5.573 7.45394L11.073 4.01592C11.355 3.83992 11.678 3.75194 12.001 3.75194C12.324 3.75194 12.647 3.83992 12.929 4.01592L18.429 7.45394C18.944 7.77594 19.251 8.32992 19.251 8.93792V15.0619H19.25Z" fill="white" fill-opacity="0.5"/>
</svg>
