<svg width="24" height="24" viewBox="0 0 24 24" fill="none" xmlns="http://www.w3.org/2000/svg">
<path d="M8.25 7L8.25 6C8.25 3.582 9.582 2.25 12 2.25L18 2.25C20.418 2.25 21.75 3.582 21.75 6L21.75 18C21.75 20.418 20.418 21.75 18 21.75L12 21.75C9.582 21.75 8.25 20.418 8.25 18L8.25 17C8.25 16.586 8.586 16.25 9 16.25C9.414 16.25 9.75 16.586 9.75 17L9.75 18C9.75 19.577 10.423 20.25 12 20.25L18 20.25C19.577 20.25 20.25 19.577 20.25 18L20.25 6C20.25 4.423 19.577 3.75 18 3.75L12 3.75C10.423 3.75 9.75 4.423 9.75 6L9.75 7C9.75 7.414 9.414 7.75 9 7.75C8.586 7.75 8.25 7.414 8.25 7ZM2.30798 11.713C2.23198 11.896 2.23198 12.103 2.30798 12.286C2.34598 12.378 2.40097 12.461 2.46997 12.53L5.46997 15.53C5.76297 15.823 6.23801 15.823 6.53101 15.53C6.82401 15.237 6.82401 14.762 6.53101 14.469L4.81098 12.749L16 12.749C16.414 12.749 16.75 12.413 16.75 11.999C16.75 11.585 16.414 11.249 16 11.249L4.81098 11.249L6.53101 9.52899C6.82401 9.23599 6.82401 8.76099 6.53101 8.46799C6.38501 8.32199 6.19298 8.24799 6.00098 8.24799C5.80898 8.24799 5.61701 8.32099 5.47101 8.46799L2.47101 11.468C2.40101 11.539 2.34598 11.622 2.30798 11.713Z" fill="white"/>
</svg>
