<svg width="20" height="20" viewBox="0 0 20 20" fill="none" xmlns="http://www.w3.org/2000/svg">
<g clip-path="url(#clip0_11051_548)">
<path d="M13.0375 3.44393C12.9611 3.44393 12.8833 3.42886 12.8085 3.39706C12.5107 3.2704 12.372 2.92632 12.4987 2.62858L13.1456 1.10769C13.2722 0.809947 13.6162 0.671248 13.914 0.797839C14.2118 0.924507 14.3505 1.26858 14.2238 1.56633L13.577 3.08721C13.4821 3.31012 13.2654 3.44393 13.0375 3.44393Z" fill="#1B1A58"/>
<path d="M6.31514 19.2491C6.23866 19.2491 6.16093 19.2341 6.08609 19.2023C5.78831 19.0756 5.64961 18.7315 5.77628 18.4338L6.42317 16.9129C6.5498 16.6151 6.89387 16.4764 7.19162 16.603C7.48941 16.7297 7.62811 17.0738 7.50144 17.3715L6.85454 18.8924C6.75975 19.1154 6.54301 19.2491 6.31514 19.2491Z" fill="#1B1A58"/>
<path d="M2.85762 7.54818C2.78114 7.54818 2.70341 7.5331 2.62858 7.50131L1.10769 6.85445C0.809947 6.72778 0.671209 6.38375 0.797878 6.08597C0.924546 5.78822 1.26854 5.64952 1.56633 5.77611L3.08721 6.42301C3.38496 6.54967 3.52369 6.89371 3.39702 7.19149C3.30219 7.4144 3.08549 7.54818 2.85762 7.54818Z" fill="#1B1A58"/>
<path d="M18.6628 14.2707C18.5863 14.2707 18.5086 14.2556 18.4338 14.2239L16.9129 13.577C16.6151 13.4503 16.4764 13.1063 16.6031 12.8085C16.7297 12.5107 17.0737 12.3721 17.3715 12.4986L18.8924 13.1455C19.1902 13.2722 19.3289 13.6162 19.2022 13.914C19.1074 14.137 18.8907 14.2707 18.6628 14.2707Z" fill="#1B1A58"/>
<path d="M7.09796 3.38767C6.86603 3.38767 6.64644 3.24901 6.55437 3.02071L5.93634 1.48784C5.81534 1.18771 5.96052 0.846332 6.26065 0.725366C6.56078 0.604439 6.90212 0.749583 7.02312 1.04967L7.64115 2.58255C7.76216 2.88268 7.61694 3.22405 7.31684 3.34502C7.24505 3.37396 7.17088 3.38767 7.09796 3.38767Z" fill="#1B1A58"/>
<path d="M13.5203 19.3172C13.2883 19.3172 13.0688 19.1786 12.9767 18.9503L12.3587 17.4174C12.2377 17.1173 12.3829 16.7759 12.683 16.6549C12.9831 16.534 13.3245 16.6791 13.4455 16.9792L14.0635 18.5121C14.1845 18.8122 14.0393 19.1536 13.7392 19.2746C13.6674 19.3035 13.5932 19.3172 13.5203 19.3172Z" fill="#1B1A58"/>
<path d="M1.26899 14.1063C1.03702 14.1063 0.817467 13.9677 0.725404 13.7393C0.604399 13.4392 0.749582 13.0979 1.04967 12.9768L2.58255 12.3588C2.8826 12.2379 3.22401 12.383 3.34502 12.6831C3.46602 12.9832 3.32084 13.3246 3.02075 13.4456L1.48788 14.0636C1.41612 14.0926 1.34195 14.1063 1.26899 14.1063Z" fill="#1B1A58"/>
<path d="M17.1986 7.68388C16.9666 7.68388 16.747 7.54526 16.655 7.31692C16.534 7.01679 16.6791 6.67545 16.9792 6.55445L18.5121 5.93641C18.8122 5.81553 19.1536 5.96059 19.2746 6.26072C19.3956 6.56085 19.2504 6.90219 18.9503 7.02319L17.4174 7.64123C17.3457 7.67013 17.2715 7.68388 17.1986 7.68388Z" fill="#1B1A58"/>
<path d="M2.23867 10.5858H0.585886C0.262321 10.5858 0 10.3235 0 9.99995C0 9.67638 0.262321 9.41406 0.585886 9.41406H2.23867C2.56224 9.41406 2.82456 9.67638 2.82456 9.99995C2.82456 10.3236 2.56224 10.5858 2.23867 10.5858Z" fill="#1B1A58"/>
<path d="M19.4141 10.5858H17.7613C17.4377 10.5858 17.1754 10.3235 17.1754 9.99995C17.1754 9.67638 17.4377 9.41406 17.7613 9.41406H19.414C19.7376 9.41406 19.9999 9.67638 19.9999 9.99995C20 10.3236 19.7377 10.5858 19.4141 10.5858Z" fill="#1B1A58"/>
<path d="M4.51192 5.09777C4.36197 5.09777 4.21202 5.04055 4.09766 4.92615L2.92893 3.75746C2.70012 3.52869 2.70012 3.15771 2.92893 2.9289C3.1577 2.70013 3.52868 2.70013 3.75749 2.9289L4.92618 4.09759C5.15498 4.32636 5.15498 4.69734 4.92618 4.92615C4.81177 5.04055 4.66186 5.09777 4.51192 5.09777Z" fill="#1B1A58"/>
<path d="M16.6568 17.2426C16.5068 17.2426 16.3569 17.1854 16.2425 17.071L15.0738 15.9024C14.845 15.6735 14.845 15.3026 15.0738 15.0738C15.3026 14.845 15.6736 14.845 15.9024 15.0738L17.0711 16.2425C17.2999 16.4713 17.2999 16.8422 17.0711 17.071C16.9567 17.1854 16.8067 17.2426 16.6568 17.2426Z" fill="#1B1A58"/>
<path d="M3.34319 17.2426C3.19324 17.2426 3.0433 17.1854 2.92893 17.071C2.70012 16.8422 2.70012 16.4713 2.92893 16.2425L4.09762 15.0738C4.32639 14.845 4.69737 14.845 4.92618 15.0738C5.15498 15.3026 5.15498 15.6735 4.92618 15.9024L3.75745 17.071C3.64309 17.1854 3.49314 17.2426 3.34319 17.2426Z" fill="#1B1A58"/>
<path d="M15.4881 5.09777C15.3381 5.09777 15.1882 5.04055 15.0738 4.92615C14.845 4.69738 14.845 4.3264 15.0738 4.09759L16.2425 2.9289C16.4713 2.70013 16.8423 2.70013 17.0711 2.9289C17.2999 3.15771 17.2999 3.52865 17.0711 3.75746L15.9024 4.92615C15.788 5.04055 15.638 5.09777 15.4881 5.09777Z" fill="#1B1A58"/>
<path d="M9.99995 20C9.67638 20 9.41406 19.7377 9.41406 19.4141V17.7613C9.41406 17.4377 9.67638 17.1754 9.99995 17.1754C10.3235 17.1754 10.5858 17.4377 10.5858 17.7613V19.4141C10.5858 19.7377 10.3235 20 9.99995 20Z" fill="#1B1A58"/>
<path d="M9.99995 2.82452C9.67638 2.82452 9.41406 2.5622 9.41406 2.23863V0.585886C9.41406 0.262321 9.67638 0 9.99995 0C10.3235 0 10.5858 0.262321 10.5858 0.585886V2.23863C10.5858 2.56224 10.3235 2.82452 9.99995 2.82452Z" fill="#1B1A58"/>
<path d="M10 4.08447C6.73818 4.08447 4.08447 6.73818 4.08447 10C4.08447 13.2619 6.73818 15.9156 10 15.9156C13.2619 15.9156 15.9156 13.2619 15.9156 10C15.9156 6.73818 13.2619 4.08447 10 4.08447ZM11.4854 10.5859H10C9.67648 10.5859 9.41416 10.3236 9.41416 10V8.45811C9.41416 8.13455 9.67648 7.87223 10 7.87223C10.3236 7.87223 10.5859 8.13455 10.5859 8.45811V9.4142H11.4854C11.809 9.4142 12.0713 9.67652 12.0713 10.0001C12.0713 10.3237 11.809 10.5859 11.4854 10.5859Z" fill="#1B1A58"/>
</g>
<defs>
<clipPath id="clip0_11051_548">
<rect width="20" height="20" fill="white"/>
</clipPath>
</defs>
</svg>
