<svg width="20" height="20" viewBox="0 0 20 20" fill="none" xmlns="http://www.w3.org/2000/svg">
<g clip-path="url(#clip0_11051_507)">
<path d="M19.7169 11.966C19.4893 11.8256 19.1956 11.8514 18.9986 12.0314C17.564 13.3327 15.7082 14.0497 13.7742 14.0497C9.4814 14.0497 5.98881 10.5571 5.98881 6.26435C5.98881 4.33015 6.70582 2.47452 8.00709 1.03989C8.18653 0.842135 8.21354 0.549166 8.07255 0.321657C7.93156 0.0947583 7.65553 -0.0105275 7.40055 0.0614941C3.04279 1.29547 -0.00012207 5.3238 -0.00012207 9.8575C-0.00012207 15.4715 4.56699 20.0385 10.1809 20.0385C14.7146 20.0385 18.743 16.9956 19.977 12.638C20.0501 12.3805 19.9438 12.1068 19.7169 11.966Z" fill="#1B1A58"/>
<path d="M9.91718 7.94217L11.3359 8.65095L12.0447 10.0699C12.1459 10.2728 12.3536 10.4008 12.5804 10.4008C12.8075 10.4008 13.0144 10.2728 13.1162 10.0699L13.8257 8.65095L15.2439 7.94217C15.4468 7.8404 15.5748 7.63334 15.5748 7.40644C15.5748 7.17954 15.4468 6.97248 15.2439 6.8707L13.8257 6.16178L13.1162 4.74301C12.9126 4.33713 12.2472 4.33713 12.0447 4.74301L11.3359 6.16178L9.91718 6.8707C9.71423 6.97187 9.58606 7.17954 9.58606 7.40644C9.58606 7.63334 9.71423 7.84101 9.91718 7.94217Z" fill="#1B1A58"/>
<path d="M16.1697 3.26975H16.7686V3.86866C16.7686 4.19962 17.0365 4.46757 17.3675 4.46757C17.6985 4.46757 17.9664 4.19962 17.9664 3.86866V3.26975H18.5653C18.8963 3.26975 19.1642 3.00196 19.1642 2.67084C19.1642 2.33988 18.8963 2.07208 18.5653 2.07208H17.9664V1.47318C17.9664 1.14206 17.6985 0.874268 17.3675 0.874268C17.0365 0.874268 16.7686 1.14206 16.7686 1.47318V2.07208H16.1697C15.8387 2.07208 15.5709 2.33988 15.5709 2.67084C15.5709 3.00196 15.8387 3.26975 16.1697 3.26975Z" fill="#1B1A58"/>
</g>
<defs>
<clipPath id="clip0_11051_507">
<rect width="20" height="20" fill="white"/>
</clipPath>
</defs>
</svg>
