<svg width="24" height="24" viewBox="0 0 24 24" fill="none" xmlns="http://www.w3.org/2000/svg">
<path d="M21.5359 5.5248C21.3889 5.6748 21.194 5.74978 21 5.74978C20.811 5.74978 20.6211 5.67879 20.4751 5.53579L18.4751 3.57583C18.1801 3.28583 18.1751 2.81079 18.4641 2.51479C18.7551 2.21879 19.2289 2.21381 19.5259 2.50381L21.5259 4.46377C21.8199 4.75377 21.8249 5.2288 21.5359 5.5248ZM5.53005 3.52981C5.82305 3.23681 5.82305 2.76177 5.53005 2.46877C5.23705 2.17577 4.76202 2.17577 4.46902 2.46877L2.46902 4.46877C2.17602 4.76177 2.17602 5.23681 2.46902 5.52981C2.61502 5.67581 2.80705 5.74978 2.99905 5.74978C3.19105 5.74978 3.38308 5.67681 3.52908 5.52981L5.53005 3.52981ZM17.136 19.0689L18.531 20.4707C18.824 20.7647 18.8221 21.2398 18.5291 21.5318C18.3831 21.6778 18.191 21.7498 18 21.7498C17.808 21.7498 17.615 21.6758 17.469 21.5288L15.812 19.8638C14.658 20.4258 13.368 20.7498 12 20.7498C10.632 20.7498 9.34301 20.4258 8.18801 19.8638L6.53103 21.5288C6.38503 21.6758 6.19202 21.7498 6.00002 21.7498C5.80902 21.7498 5.61697 21.6768 5.47097 21.5318C5.17797 21.2398 5.17602 20.7647 5.46902 20.4707L6.86404 19.0689C4.67904 17.4769 3.25002 14.9048 3.25002 11.9998C3.25002 7.17478 7.17502 3.24978 12 3.24978C16.825 3.24978 20.75 7.17478 20.75 11.9998C20.75 14.9048 19.321 17.4769 17.136 19.0689ZM12 19.2498C15.998 19.2498 19.25 15.9978 19.25 11.9998C19.25 8.00178 15.998 4.74978 12 4.74978C8.00202 4.74978 4.75002 8.00178 4.75002 11.9998C4.75002 15.9978 8.00202 19.2498 12 19.2498ZM12.75 11.7288V8.03982C12.75 7.62582 12.414 7.28982 12 7.28982C11.586 7.28982 11.25 7.62582 11.25 8.03982V12.0398C11.25 12.2388 11.329 12.4298 11.47 12.5698L13.47 14.5698C13.616 14.7158 13.808 14.7898 14 14.7898C14.192 14.7898 14.3841 14.7168 14.5301 14.5698C14.8231 14.2768 14.8231 13.8018 14.5301 13.5088L12.75 11.7288Z" fill="white" fill-opacity="0.5"/>
</svg>
