<svg width="32" height="32" viewBox="0 0 32 32" fill="none" xmlns="http://www.w3.org/2000/svg">
<path d="M10.6667 22.3333C10.4107 22.3333 10.1546 22.236 9.95996 22.04C9.56929 21.6494 9.56929 21.016 9.95996 20.6253L20.6266 9.95866C21.0173 9.56799 21.6507 9.56799 22.0413 9.95866C22.432 10.3493 22.432 10.9827 22.0413 11.3734L11.3747 22.04C11.1787 22.236 10.9227 22.3333 10.6667 22.3333ZM22.3333 19.6667C22.3333 18.196 21.1373 17 19.6667 17C18.196 17 17 18.196 17 19.6667C17 21.1373 18.196 22.3333 19.6667 22.3333C21.1373 22.3333 22.3333 21.1373 22.3333 19.6667ZM20.3333 19.6667C20.3333 20.0347 20.0347 20.3333 19.6667 20.3333C19.2987 20.3333 19 20.0347 19 19.6667C19 19.2987 19.2987 19 19.6667 19C20.0347 19 20.3333 19.2987 20.3333 19.6667ZM15 12.3333C15 10.8627 13.804 9.66667 12.3333 9.66667C10.8627 9.66667 9.66667 10.8627 9.66667 12.3333C9.66667 13.804 10.8627 15 12.3333 15C13.804 15 15 13.804 15 12.3333ZM13 12.3333C13 12.7013 12.7013 13 12.3333 13C11.9653 13 11.6667 12.7013 11.6667 12.3333C11.6667 11.9653 11.9653 11.6667 12.3333 11.6667C12.7013 11.6667 13 11.9653 13 12.3333ZM29 23.5V8.5C29 4.95333 27.0467 3 23.5 3H8.5C4.95333 3 3 4.95333 3 8.5V23.5C3 27.0467 4.95333 29 8.5 29H23.5C27.0467 29 29 27.0467 29 23.5ZM23.5 5C25.9533 5 27 6.04667 27 8.5V23.5C27 25.9533 25.9533 27 23.5 27H8.5C6.04667 27 5 25.9533 5 23.5V8.5C5 6.04667 6.04667 5 8.5 5H23.5Z" fill="white" fill-opacity="0.8"/>
</svg>
