<svg width="266" height="173" viewBox="0 0 266 173" fill="none" xmlns="http://www.w3.org/2000/svg">
<path d="M63.2903 121.583V113.394L83.4368 85.2036H93.2202V114.989H101.264V121.583H93.2202V132.164H86.3356V121.583H63.2903ZM86.3356 114.989V92.0158L69.8126 114.989H86.3356ZM121.209 105.205C123.722 105.157 125.799 104.432 127.442 103.031C129.084 101.63 129.906 99.7941 129.906 97.5234C129.906 95.3977 129.108 93.6101 127.514 92.1607C125.92 90.7113 123.818 89.9866 121.209 89.9866C118.6 89.9866 116.499 90.7113 114.904 92.1607C113.31 93.6101 112.513 95.3977 112.513 97.5234C112.513 99.7941 113.334 101.63 114.977 103.031C116.62 104.432 118.697 105.157 121.209 105.205ZM113.962 124.844C115.75 126.342 118.166 127.091 121.209 127.091C124.253 127.091 126.644 126.342 128.384 124.844C130.171 123.347 131.065 121.463 131.065 119.192C131.065 116.873 130.171 114.964 128.384 113.467C126.644 111.921 124.253 111.148 121.209 111.148C118.166 111.148 115.75 111.921 113.962 113.467C112.223 114.964 111.353 116.873 111.353 119.192C111.353 121.463 112.223 123.347 113.962 124.844ZM133.674 129.482C130.63 131.995 126.475 133.251 121.209 133.251C115.943 133.251 111.788 131.995 108.745 129.482C105.701 126.922 104.179 123.685 104.179 119.772C104.179 117.018 105 114.626 106.643 112.597C108.334 110.52 110.484 109.046 113.093 108.176C110.87 107.355 109.034 105.954 107.585 103.973C106.136 101.944 105.411 99.6734 105.411 97.1611C105.411 93.3444 106.909 90.2282 109.904 87.8125C112.899 85.3486 116.668 84.1166 121.209 84.1166C125.751 84.1166 129.519 85.3486 132.514 87.8125C135.51 90.2282 137.008 93.3444 137.008 97.1611C137.008 99.6251 136.283 101.872 134.834 103.901C133.384 105.93 131.548 107.355 129.326 108.176C131.935 108.998 134.06 110.447 135.703 112.525C137.394 114.602 138.24 117.018 138.24 119.772C138.24 123.685 136.718 126.922 133.674 129.482Z" fill="white"/>
<path d="M156.826 109.973L146.116 132.111H143.274L153.984 109.973H156.826ZM164.869 132.111H161.871V117.842H156.969V115.687C158.343 115.667 159.498 115.313 160.435 114.626C161.372 113.918 161.954 113.002 162.183 111.878H164.869V132.111ZM173.094 115.438C171.907 116.687 171.314 118.872 171.314 121.995C171.314 125.117 171.907 127.303 173.094 128.552C173.926 129.426 174.998 129.863 176.31 129.863C177.621 129.863 178.693 129.426 179.526 128.552C180.712 127.303 181.305 125.117 181.305 121.995C181.305 118.872 180.712 116.687 179.526 115.438C178.693 114.563 177.621 114.126 176.31 114.126C174.998 114.126 173.926 114.563 173.094 115.438ZM170.096 129.332C168.889 127.542 168.285 125.096 168.285 121.995C168.285 118.893 168.889 116.447 170.096 114.657C171.532 112.492 173.604 111.41 176.31 111.41C179.016 111.41 181.087 112.492 182.523 114.657C183.731 116.447 184.334 118.893 184.334 121.995C184.334 125.096 183.731 127.542 182.523 129.332C181.087 131.497 179.016 132.579 176.31 132.579C173.604 132.579 171.532 131.497 170.096 129.332ZM191.496 115.438C190.31 116.687 189.716 118.872 189.716 121.995C189.716 125.117 190.31 127.303 191.496 128.552C192.329 129.426 193.401 129.863 194.712 129.863C196.024 129.863 197.096 129.426 197.928 128.552C199.115 127.303 199.708 125.117 199.708 121.995C199.708 118.872 199.115 116.687 197.928 115.438C197.096 114.563 196.024 114.126 194.712 114.126C193.401 114.126 192.329 114.563 191.496 115.438ZM188.499 129.332C187.291 127.542 186.688 125.096 186.688 121.995C186.688 118.893 187.291 116.447 188.499 114.657C189.935 112.492 192.006 111.41 194.712 111.41C197.418 111.41 199.489 112.492 200.926 114.657C202.133 116.447 202.737 118.893 202.737 121.995C202.737 125.096 202.133 127.542 200.926 129.332C199.489 131.497 197.418 132.579 194.712 132.579C192.006 132.579 189.935 131.497 188.499 129.332Z" fill="white" fill-opacity="0.4"/>
<path d="M247.28 170.663C253.567 172.718 260.387 169.295 261.866 162.848C265.647 146.379 266.253 129.301 263.612 112.536C260.347 91.8193 252.216 72.1719 239.885 55.2072C227.554 38.2425 211.375 24.4442 192.677 14.9454C173.979 5.44652 153.294 0.5179 132.321 0.564166C111.349 0.610431 90.6862 5.63026 72.03 15.2115C53.3739 24.7928 37.2561 38.6622 25.0002 55.6812C12.7442 72.7002 4.69947 92.3833 1.5265 113.115C-1.04109 129.89 -0.359352 146.965 3.49387 163.418C5.00213 169.858 11.8364 173.251 18.1141 171.168C24.3919 169.085 27.7226 162.314 26.3429 155.845C23.6069 143.018 23.2089 129.768 25.2031 116.738C27.803 99.7515 34.3947 83.6234 44.437 69.6784C54.4794 55.7333 67.6859 44.3689 82.9725 36.5182C98.2591 28.6675 115.19 24.5543 132.374 24.5164C149.559 24.4785 166.508 28.5169 181.829 36.3001C197.15 44.0833 210.406 55.3894 220.51 69.29C230.614 83.1906 237.277 99.2894 239.951 116.265C242.003 129.285 241.664 142.537 238.984 155.376C237.633 161.851 240.994 168.608 247.28 170.663Z" fill="#24255C"/>
<path d="M80.781 24.2856C77.9331 18.3107 70.7466 15.7297 65.053 19.1051C40.8755 33.4387 21.7792 55.1506 10.6815 81.1984C-0.416184 107.246 -2.84603 136.059 3.56534 163.425C5.07515 169.869 11.9149 173.264 18.1968 171.179V171.179C24.4787 169.094 27.8107 162.317 26.4297 155.844C21.7822 134.059 23.9263 111.264 32.7328 90.5934C41.5394 69.9233 56.4939 52.5859 75.4246 40.8464C81.0497 37.3581 83.6289 30.2605 80.781 24.2856V24.2856Z" fill="#E17025"/>
<path d="M70.0915 152.812H74.7076C76.0265 152.812 77.0656 153.165 77.825 153.871C78.5977 154.577 78.984 155.503 78.984 156.649C78.984 157.381 78.7908 158.014 78.4045 158.547C78.0181 159.08 77.5052 159.466 76.8658 159.706C77.6518 159.906 78.2713 160.326 78.7242 160.965C79.1905 161.591 79.4236 162.311 79.4236 163.123C79.4236 164.242 79.0173 165.168 78.2046 165.901C77.392 166.62 76.3395 166.98 75.0473 166.98H70.0915V152.812ZM72.0498 159.007H74.4878C75.2605 159.007 75.8733 158.8 76.3262 158.387C76.7792 157.961 77.0057 157.415 77.0057 156.749C77.0057 156.069 76.7725 155.53 76.3062 155.13C75.84 154.73 75.2072 154.53 74.4078 154.53H72.0498V159.007ZM72.0498 165.261H74.7675C75.5669 165.261 76.2063 165.055 76.6859 164.642C77.1788 164.229 77.4253 163.683 77.4253 163.003C77.4253 162.297 77.2055 161.738 76.7659 161.325C76.3262 160.898 75.6868 160.685 74.8475 160.685H72.0498V165.261ZM82.8297 161.185H88.0853C88.0586 160.465 87.8188 159.879 87.3659 159.426C86.9129 158.96 86.2734 158.727 85.4475 158.727C84.7014 158.727 84.0886 158.973 83.609 159.466C83.1294 159.946 82.8696 160.519 82.8297 161.185ZM88.365 163.683L89.9837 164.242C89.7039 165.135 89.1843 165.868 88.425 166.44C87.6656 167 86.7464 167.28 85.6673 167.28C84.3217 167.28 83.176 166.82 82.2302 165.901C81.2976 164.968 80.8313 163.716 80.8313 162.144C80.8313 160.679 81.2843 159.466 82.1902 158.507C83.0961 157.548 84.1752 157.068 85.4275 157.068C86.8796 157.068 88.012 157.528 88.8246 158.447C89.6373 159.353 90.0436 160.572 90.0436 162.104C90.0436 162.344 90.0303 162.544 90.0036 162.704H82.7697C82.783 163.556 83.0628 164.256 83.609 164.802C84.1685 165.348 84.8546 165.621 85.6673 165.621C87.0395 165.621 87.9387 164.975 88.365 163.683ZM93.9202 166.98H92.0418V152.512H93.9202V166.98ZM98.6943 164.702C99.2805 165.301 99.9932 165.601 100.833 165.601C101.672 165.601 102.378 165.301 102.951 164.702C103.537 164.089 103.83 163.243 103.83 162.164C103.83 161.098 103.537 160.266 102.951 159.666C102.378 159.053 101.672 158.747 100.833 158.747C99.9932 158.747 99.2805 159.053 98.6943 159.666C98.1215 160.266 97.835 161.098 97.835 162.164C97.835 163.243 98.1215 164.089 98.6943 164.702ZM97.2955 158.527C98.228 157.555 99.4071 157.068 100.833 157.068C102.258 157.068 103.43 157.555 104.35 158.527C105.282 159.486 105.748 160.699 105.748 162.164C105.748 163.643 105.289 164.868 104.37 165.841C103.45 166.8 102.271 167.28 100.833 167.28C99.3937 167.28 98.2147 166.8 97.2955 165.841C96.3763 164.868 95.9166 163.643 95.9166 162.164C95.9166 160.699 96.3763 159.486 97.2955 158.527ZM112.972 157.368H114.911L117.409 164.602L119.527 157.368H121.505L118.388 166.98H116.449L113.892 159.666L111.394 166.98H109.415L106.258 157.368H108.316L110.474 164.602L112.972 157.368ZM130.397 155.789C129.398 156.762 128.898 158.127 128.898 159.886C128.898 161.644 129.398 163.017 130.397 164.002C131.396 164.988 132.602 165.481 134.014 165.481C135.426 165.481 136.632 164.988 137.631 164.002C138.63 163.017 139.13 161.644 139.13 159.886C139.13 158.127 138.63 156.762 137.631 155.789C136.632 154.804 135.426 154.311 134.014 154.311C132.602 154.311 131.396 154.804 130.397 155.789ZM126.9 159.886C126.9 158.74 127.1 157.694 127.5 156.749C127.912 155.803 128.452 155.03 129.118 154.431C129.798 153.818 130.557 153.345 131.396 153.012C132.236 152.679 133.108 152.512 134.014 152.512C134.92 152.512 135.793 152.679 136.632 153.012C137.471 153.345 138.224 153.818 138.89 154.431C139.569 155.03 140.109 155.803 140.509 156.749C140.922 157.694 141.128 158.74 141.128 159.886C141.128 161.405 140.775 162.737 140.069 163.883C139.376 165.028 138.497 165.881 137.431 166.44C136.365 167 135.226 167.28 134.014 167.28C132.802 167.28 131.663 167 130.597 166.44C129.531 165.881 128.645 165.028 127.939 163.883C127.246 162.737 126.9 161.405 126.9 159.886ZM145.08 170.777H143.221V157.368H145.04V158.867C145.32 158.361 145.739 157.948 146.299 157.628C146.858 157.308 147.511 157.148 148.257 157.148C149.643 157.148 150.722 157.621 151.495 158.567C152.281 159.513 152.674 160.712 152.674 162.164C152.674 163.629 152.267 164.842 151.455 165.801C150.655 166.76 149.569 167.24 148.197 167.24C147.491 167.24 146.865 167.093 146.319 166.8C145.773 166.507 145.36 166.134 145.08 165.681V170.777ZM150.755 162.164C150.755 161.192 150.495 160.392 149.976 159.766C149.47 159.127 148.783 158.807 147.918 158.807C147.065 158.807 146.372 159.127 145.839 159.766C145.32 160.392 145.06 161.192 145.06 162.164C145.06 163.163 145.32 163.982 145.839 164.622C146.372 165.248 147.065 165.561 147.918 165.561C148.77 165.561 149.456 165.248 149.976 164.622C150.495 163.982 150.755 163.163 150.755 162.164ZM157.088 154.331V157.368H159.166V159.067H157.088V164.062C157.088 164.515 157.188 164.848 157.387 165.062C157.601 165.275 157.947 165.381 158.427 165.381C158.706 165.381 158.953 165.355 159.166 165.301V166.9C158.846 167.02 158.42 167.08 157.887 167.08C157.061 167.08 156.408 166.84 155.929 166.361C155.449 165.881 155.209 165.208 155.209 164.342V159.067H153.371V157.368H153.89C154.383 157.368 154.75 157.235 154.989 156.968C155.243 156.689 155.369 156.329 155.369 155.889V154.331H157.088ZM163.132 166.98H161.273V157.368H163.132V166.98ZM161.234 154.69C160.98 154.424 160.854 154.104 160.854 153.731C160.854 153.358 160.98 153.038 161.234 152.772C161.5 152.505 161.82 152.372 162.193 152.372C162.566 152.372 162.885 152.505 163.152 152.772C163.418 153.025 163.552 153.345 163.552 153.731C163.552 154.104 163.418 154.424 163.152 154.69C162.885 154.943 162.566 155.07 162.193 155.07C161.82 155.07 161.5 154.943 161.234 154.69ZM167.787 166.98H165.928V157.368H167.727V158.647C168.02 158.141 168.433 157.754 168.966 157.488C169.499 157.222 170.058 157.088 170.644 157.088C171.27 157.088 171.843 157.241 172.363 157.548C172.882 157.854 173.269 158.307 173.522 158.907C174.188 157.694 175.26 157.088 176.739 157.088C177.658 157.088 178.438 157.401 179.077 158.027C179.73 158.654 180.056 159.56 180.056 160.745V166.98H178.198V160.945C178.198 160.279 178.025 159.746 177.678 159.346C177.345 158.947 176.839 158.747 176.16 158.747C175.507 158.747 174.974 158.98 174.561 159.446C174.148 159.899 173.941 160.472 173.941 161.165V166.98H172.063V160.945C172.063 160.279 171.89 159.746 171.543 159.346C171.21 158.947 170.704 158.747 170.025 158.747C169.359 158.747 168.819 158.973 168.406 159.426C167.993 159.879 167.787 160.465 167.787 161.185V166.98ZM182.063 164.402C182.063 163.576 182.33 162.917 182.862 162.424C183.395 161.918 184.101 161.604 184.981 161.485L187.578 161.105C188.071 161.038 188.318 160.799 188.318 160.386C188.318 159.879 188.145 159.466 187.798 159.147C187.452 158.827 186.932 158.667 186.24 158.667C185.6 158.667 185.094 158.847 184.721 159.207C184.348 159.553 184.128 160.019 184.061 160.605L182.263 160.186C182.356 159.266 182.776 158.52 183.522 157.948C184.268 157.361 185.16 157.068 186.2 157.068C187.558 157.068 188.564 157.401 189.217 158.067C189.87 158.72 190.196 159.56 190.196 160.585V165.401C190.196 165.974 190.236 166.5 190.316 166.98H188.478C188.411 166.58 188.378 166.147 188.378 165.681C188.111 166.107 187.718 166.48 187.199 166.8C186.693 167.12 186.053 167.28 185.28 167.28C184.334 167.28 183.562 167 182.962 166.44C182.363 165.868 182.063 165.188 182.063 164.402ZM185.54 165.701C186.379 165.701 187.052 165.475 187.558 165.022C188.065 164.569 188.318 163.849 188.318 162.863V162.424L185.38 162.863C184.954 162.93 184.614 163.083 184.361 163.323C184.108 163.563 183.981 163.889 183.981 164.302C183.981 164.675 184.121 165.002 184.401 165.281C184.694 165.561 185.074 165.701 185.54 165.701ZM194.601 166.98H192.723V152.512H194.601V166.98Z" fill="#E17025"/>
</svg>
