<svg width="24" height="24" viewBox="0 0 24 24" fill="none" xmlns="http://www.w3.org/2000/svg">
<path d="M12 8.25042C9.932 8.25042 8.25 9.93242 8.25 12.0004C8.25 14.0684 9.932 15.7504 12 15.7504C14.068 15.7504 15.75 14.0684 15.75 12.0004C15.75 9.93242 14.068 8.25042 12 8.25042ZM12 14.2504C10.759 14.2504 9.75 13.2414 9.75 12.0004C9.75 10.7594 10.759 9.75042 12 9.75042C13.241 9.75042 14.25 10.7594 14.25 12.0004C14.25 13.2414 13.241 14.2504 12 14.2504ZM19.223 6.18243L13.723 2.74441C12.676 2.09041 11.325 2.09041 10.278 2.74441L4.778 6.18243C3.821 6.78043 3.25101 7.81041 3.25101 8.93841V15.0624C3.25101 16.1904 3.822 17.2204 4.778 17.8184L10.278 21.2564C10.801 21.5834 11.401 21.7464 12.001 21.7464C12.601 21.7464 13.2 21.5824 13.724 21.2564L19.224 17.8184C20.181 17.2204 20.751 16.1904 20.751 15.0624V8.93841C20.75 7.81041 20.179 6.78043 19.223 6.18243ZM19.25 15.0624C19.25 15.6694 18.942 16.2244 18.428 16.5464L12.928 19.9844C12.365 20.3364 11.636 20.3364 11.073 19.9844L5.573 16.5464C5.058 16.2244 4.75101 15.6704 4.75101 15.0624V8.93841C4.75101 8.33141 5.059 7.77643 5.573 7.45443L11.073 4.01641C11.355 3.84041 11.678 3.75243 12.001 3.75243C12.324 3.75243 12.647 3.84041 12.929 4.01641L18.429 7.45443C18.944 7.77643 19.251 8.33041 19.251 8.93841V15.0624H19.25Z" fill="white"/>
</svg>
