<svg width="20" height="20" viewBox="0 0 20 20" fill="none" xmlns="http://www.w3.org/2000/svg">
<g clip-path="url(#clip0_30066_978)">
<mask id="mask0_30066_978" style="mask-type:luminance" maskUnits="userSpaceOnUse" x="0" y="0" width="21" height="20">
<path d="M0.00012207 -2.86102e-05H20.0001V20H0.00012207V-2.86102e-05Z" fill="white"/>
</mask>
<g mask="url(#mask0_30066_978)">
<path d="M10.0004 0.585859V1.82715" stroke="#D1D1DC" stroke-width="1.17187" stroke-miterlimit="10" stroke-linecap="round" stroke-linejoin="round"/>
<path d="M14.8725 1.35792L13.9948 2.23566" stroke="#D1D1DC" stroke-width="1.17187" stroke-miterlimit="10" stroke-linecap="round" stroke-linejoin="round"/>
<path d="M5.12817 1.35792L6.00591 2.23566" stroke="#D1D1DC" stroke-width="1.17187" stroke-miterlimit="10" stroke-linecap="round" stroke-linejoin="round"/>
<path d="M19.4144 4.34943L19.4142 4.34935L17.5399 3.75427L19.3973 2.34685" stroke="#D1D1DC" stroke-width="1.17187" stroke-miterlimit="10" stroke-linecap="round" stroke-linejoin="round"/>
<path d="M19.4142 4.34935L17.5571 5.75638" stroke="#D1D1DC" stroke-width="1.17187" stroke-miterlimit="10" stroke-linecap="round" stroke-linejoin="round"/>
<path d="M0.586304 4.34943L0.586538 4.34935L2.4608 3.75427L0.603413 2.34685" stroke="#D1D1DC" stroke-width="1.17187" stroke-miterlimit="10" stroke-linecap="round" stroke-linejoin="round"/>
<path d="M0.586548 4.34935L2.44358 5.75638" stroke="#D1D1DC" stroke-width="1.17187" stroke-miterlimit="10" stroke-linecap="round" stroke-linejoin="round"/>
<path d="M15.6375 14.2096C15.7168 14.4589 15.7598 14.7241 15.7598 14.9995C15.7598 16.437 14.5945 17.6022 13.157 17.6022C13.141 17.6022 13.1254 17.6014 13.1094 17.6011C12.9285 18.6311 12.0301 19.4139 10.9484 19.4139C10.6086 19.4139 10.2875 19.3366 10.0004 19.1991C9.71327 19.3366 9.39217 19.4139 9.05276 19.4139C7.97069 19.4139 7.07225 18.6311 6.89143 17.6011C6.87538 17.6014 6.85975 17.6022 6.84374 17.6022C5.40624 17.6022 4.241 16.437 4.241 14.9995C4.241 14.7241 4.28401 14.4589 4.36327 14.2096C3.78124 13.6401 3.41956 12.846 3.41956 11.9671C3.41956 10.9772 3.87811 10.0952 4.59413 9.5198C4.44608 9.20418 4.36288 8.85183 4.36288 8.48035C4.36288 7.57918 4.84885 6.79129 5.57307 6.36511C5.57307 6.36511 5.57342 6.36472 5.5742 6.36433C5.80237 6.23035 6.05389 6.13191 6.32151 6.07722C6.39963 6.06121 6.47932 6.04871 6.56014 6.0405C6.55901 6.01355 6.55784 5.98621 6.55784 5.95925C6.55784 4.74675 7.54065 3.76394 8.75315 3.76394C9.21639 3.76394 9.64608 3.90808 10.0004 4.153C10.3547 3.90808 10.7844 3.76394 11.2476 3.76394C12.4601 3.76394 13.443 4.74675 13.443 5.95925C13.443 5.98621 13.4418 6.01355 13.4406 6.0405C14.6754 6.16824 15.6379 7.21199 15.6379 8.48035C15.6379 8.85183 15.5547 9.20418 15.4066 9.5198C16.1226 10.0952 16.5812 10.9772 16.5812 11.9671C16.5812 12.846 16.2195 13.6401 15.6375 14.2096Z" stroke="#D1D1DC" stroke-width="1.17187" stroke-miterlimit="10" stroke-linecap="round" stroke-linejoin="round"/>
<path d="M4.34717 14.2628C4.56314 13.5276 5.60861 12.6724 6.29959 12.365" stroke="#D1D1DC" stroke-width="1.17187" stroke-miterlimit="10" stroke-linecap="round" stroke-linejoin="round"/>
<path d="M13.2214 8.83663C14.1705 8.77061 15.1235 9.15124 15.7641 9.85495" stroke="#D1D1DC" stroke-width="1.17187" stroke-miterlimit="10" stroke-linecap="round" stroke-linejoin="round"/>
<path d="M10.0004 4.15304V19.1991" stroke="#D1D1DC" stroke-width="1.17187" stroke-miterlimit="10" stroke-linecap="round" stroke-linejoin="round"/>
<path d="M12.0942 15.2776C12.0942 15.2776 13.3092 14.9362 13.5269 13.7905" stroke="#D1D1DC" stroke-width="1.17187" stroke-miterlimit="10" stroke-linecap="round" stroke-linejoin="round"/>
<path d="M6.35995 10.9719C6.35995 10.9719 5.98644 12.5027 7.09913 13.4417" stroke="#D1D1DC" stroke-width="1.17187" stroke-miterlimit="10" stroke-linecap="round" stroke-linejoin="round"/>
<path d="M6.56006 6.04055C7.14045 6.00887 7.25229 6.00617 7.98314 6.1882" stroke="#D1D1DC" stroke-width="1.17187" stroke-miterlimit="10" stroke-linecap="round" stroke-linejoin="round"/>
<path d="M5.57413 6.36436C5.57335 6.36475 5.573 6.36514 5.573 6.36514" stroke="#D1D1DC" stroke-width="1.17187" stroke-miterlimit="10" stroke-linecap="round" stroke-linejoin="round"/>
<path d="M7.98315 8.70216C7.98315 8.70216 9.33624 9.07181 10.0003 10.5813" stroke="#D1D1DC" stroke-width="1.17187" stroke-miterlimit="10" stroke-linecap="round" stroke-linejoin="round"/>
<path d="M10.0004 13.5137C10.0004 13.5137 10.7433 11.9653 12.0942 11.9796" stroke="#D1D1DC" stroke-width="1.17187" stroke-miterlimit="10" stroke-linecap="round" stroke-linejoin="round"/>
</g>
</g>
<defs>
<clipPath id="clip0_30066_978">
<rect width="20" height="20" fill="white"/>
</clipPath>
</defs>
</svg>
