<svg width="40" height="41" viewBox="0 0 40 41" fill="none" xmlns="http://www.w3.org/2000/svg">
<path fill-rule="evenodd" clip-rule="evenodd" d="M22 32.5C23.0609 32.5 24.0783 32.9214 24.8284 33.6716C25.5786 34.4217 26 35.4391 26 36.5C26 37.5609 25.5786 38.5783 24.8284 39.3284C24.0783 40.0786 23.0609 40.5 22 40.5C20.9391 40.5 19.9217 40.0786 19.1716 39.3284C18.4214 38.5783 18 37.5609 18 36.5C18 35.4391 18.4214 34.4217 19.1716 33.6716C19.9217 32.9214 20.9391 32.5 22 32.5ZM9.482 26.5C10.8081 26.5 12.0799 27.0268 13.0175 27.9645C13.9552 28.9021 14.482 30.1739 14.482 31.5C14.482 32.8261 13.9552 34.0979 13.0175 35.0355C12.0799 35.9732 10.8081 36.5 9.482 36.5C8.15592 36.5 6.88415 35.9732 5.94647 35.0355C5.00878 34.0979 4.482 32.8261 4.482 31.5C4.482 30.1739 5.00878 28.9021 5.94647 27.9645C6.88415 27.0268 8.15592 26.5 9.482 26.5ZM32.638 27.5C33.6989 27.5 34.7163 27.9214 35.4664 28.6716C36.2166 29.4217 36.638 30.4391 36.638 31.5C36.638 32.5609 36.2166 33.5783 35.4664 34.3284C34.7163 35.0786 33.6989 35.5 32.638 35.5C31.5771 35.5 30.5597 35.0786 29.8096 34.3284C29.0594 33.5783 28.638 32.5609 28.638 31.5C28.638 30.4391 29.0594 29.4217 29.8096 28.6716C30.5597 27.9214 31.5771 27.5 32.638 27.5ZM37 19.138C37.7957 19.138 38.5587 19.4541 39.1213 20.0167C39.6839 20.5793 40 21.3424 40 22.138C40 22.9336 39.6839 23.6967 39.1213 24.2593C38.5587 24.8219 37.7957 25.138 37 25.138C36.2043 25.138 35.4413 24.8219 34.8787 24.2593C34.3161 23.6967 34 22.9336 34 22.138C34 21.3424 34.3161 20.5793 34.8787 20.0167C35.4413 19.4541 36.2043 19.138 37 19.138ZM5 12.5C6.32608 12.5 7.59785 13.0268 8.53553 13.9645C9.47322 14.9021 10 16.1739 10 17.5C10 18.8261 9.47322 20.0979 8.53553 21.0355C7.59785 21.9732 6.32608 22.5 5 22.5C3.67392 22.5 2.40215 21.9732 1.46447 21.0355C0.526784 20.0979 0 18.8261 0 17.5C0 16.1739 0.526784 14.9021 1.46447 13.9645C2.40215 13.0268 3.67392 12.5 5 12.5ZM35.572 10.914C36.1024 10.914 36.6111 11.1247 36.9862 11.4998C37.3613 11.8749 37.572 12.3836 37.572 12.914C37.572 13.4444 37.3613 13.9531 36.9862 14.3282C36.6111 14.7033 36.1024 14.914 35.572 14.914C35.0416 14.914 34.5329 14.7033 34.1578 14.3282C33.7827 13.9531 33.572 13.4444 33.572 12.914C33.572 12.3836 33.7827 11.8749 34.1578 11.4998C34.5329 11.1247 35.0416 10.914 35.572 10.914ZM16 0.5C17.5913 0.5 19.1174 1.13214 20.2426 2.25736C21.3679 3.38258 22 4.9087 22 6.5C22 8.0913 21.3679 9.61742 20.2426 10.7426C19.1174 11.8679 17.5913 12.5 16 12.5C14.4087 12.5 12.8826 11.8679 11.7574 10.7426C10.6321 9.61742 10 8.0913 10 6.5C10 4.9087 10.6321 3.38258 11.7574 2.25736C12.8826 1.13214 14.4087 0.5 16 0.5V0.5ZM31 6.5C31.2652 6.5 31.5196 6.60536 31.7071 6.79289C31.8946 6.98043 32 7.23478 32 7.5C32 7.76522 31.8946 8.01957 31.7071 8.20711C31.5196 8.39464 31.2652 8.5 31 8.5C30.7348 8.5 30.4804 8.39464 30.2929 8.20711C30.1054 8.01957 30 7.76522 30 7.5C30 7.23478 30.1054 6.98043 30.2929 6.79289C30.4804 6.60536 30.7348 6.5 31 6.5Z" fill="#9E0B0F"/>
</svg>
