<svg width="402" height="246" viewBox="0 0 402 246" fill="none" xmlns="http://www.w3.org/2000/svg">
<g opacity="0.5">
<path d="M448.962 71.7801C429.487 76.309 410.013 80.8381 388.161 72.233C366.308 63.6279 342.078 41.8889 318.98 33.7367C295.883 25.5846 273.917 31.0193 262.081 34.2998C250.245 37.5803 248.538 38.7062 251.737 40.693C254.936 42.6799 263.041 45.5272 267.75 46.732C272.46 47.9368 273.774 47.4988 273.884 43.3367C273.993 39.1747 272.898 31.2888 270.707 23.9505C268.517 16.6122 265.231 9.82142 259.536 5.6596C253.84 1.49757 245.735 -0.0357147 237.85 0.293013C229.964 0.621527 222.297 2.81205 215.615 5.98811C208.934 9.16439 203.239 13.3264 206.306 17.9265C209.373 22.5265 221.201 27.5646 227.773 30.1934C234.345 32.8219 235.659 33.0411 235.33 34.9031C235.002 36.7651 233.03 40.2702 231.826 42.2417C230.621 44.2132 230.183 44.6512 225.583 43.0082C220.983 41.3652 212.221 37.6414 202.363 35.9986C192.506 34.3556 181.553 34.7938 170.6 36.8746C159.648 38.9555 148.695 42.6793 138.728 47.7175C128.761 52.7558 119.78 59.1086 115.07 62.6134C110.361 66.1184 109.923 66.7754 111.675 63.1611C113.428 59.5468 117.371 51.661 119.561 46.9512C121.752 42.2415 122.19 40.708 119.67 39.2842C117.151 37.8602 111.675 36.5461 104.227 37.0937C96.7793 37.6412 87.3602 40.0507 81.9936 45.8555C76.6268 51.6604 75.3125 60.8607 75.422 69.7323C75.5315 78.6039 77.0646 87.1469 78.1598 91.8567C79.2551 96.5665 79.9121 97.4427 84.0744 93.9379C88.2364 90.4332 95.9035 82.5473 99.8465 78.6043C103.789 74.6613 104.008 74.6613 106.199 75.7567C108.389 76.852 112.551 79.0427 114.632 80.138C116.713 81.2333 116.713 81.2333 123.395 75.0997C130.076 68.9662 143.438 56.6991 160.743 50.3465C178.048 43.9939 199.296 43.5559 217.478 50.456C235.659 57.3561 250.774 71.5945 260.741 88.5712C270.708 105.548 275.527 125.263 273.884 143.225C272.241 161.187 264.136 177.397 247.378 189.117C230.621 200.836 205.211 208.065 183.634 207.408C162.058 206.751 144.314 198.208 133.143 187.036C121.971 175.864 117.371 162.064 115.399 149.687C113.428 137.311 114.085 126.358 116.495 116.281C118.904 106.205 123.066 97.0047 128.652 88.5712C134.238 80.1376 141.248 72.4708 148.038 67.5422C154.829 62.6134 161.4 60.4229 164.686 59.8754C167.972 59.3278 167.972 60.4233 171.258 72.5807C174.543 84.7381 181.115 107.957 186.591 120.005C192.068 132.053 196.449 132.929 198.53 131.506C200.611 130.082 200.392 126.358 198.967 125.575C197.542 124.792 194.911 126.95 189.872 136.588C184.834 146.227 177.389 163.345 173.776 169.385C170.163 175.426 170.382 170.387 173.12 161.954C175.858 153.521 181.115 141.692 185.168 134.134C189.22 126.577 192.068 123.291 189.768 111.353C187.468 99.4145 180.02 78.8233 176.187 68.5279C172.353 58.2323 172.134 58.2324 176.077 57.7943C180.02 57.3563 188.125 56.4803 197.544 57.3565C206.964 58.2328 217.697 60.8615 226.568 66.1188C235.44 71.3761 242.45 79.262 248.036 87.0383C253.622 94.8146 257.784 102.481 260.741 111.353C263.698 120.225 265.451 130.301 265.013 139.94C264.575 149.578 261.946 158.778 258.332 165.24C254.717 171.702 250.117 175.426 248.365 179.04C246.612 182.655 247.707 186.16 254.06 192.074C260.412 197.989 272.022 206.312 277.936 209.051C283.851 211.789 284.07 208.941 282.208 204.231C280.346 199.521 276.403 192.95 273.884 189.226C271.365 185.502 270.27 184.626 268.298 185.831C266.327 187.036 263.479 190.322 255.812 195.688C248.145 201.055 235.659 208.503 222.516 213.322C209.373 218.141 195.573 220.332 182.868 219.455C170.163 218.579 158.553 214.636 152.529 213.651C146.505 212.665 146.067 214.636 145.519 219.894C144.971 225.151 144.314 233.694 145.628 239.061C146.943 244.428 150.228 246.618 153.624 243.552C157.019 240.485 160.524 232.161 162.277 227.998C164.029 223.836 164.029 223.836 160.086 222.413C156.143 220.989 148.257 218.141 140.043 211.898C131.828 205.655 123.285 196.017 117.261 186.817C111.237 177.616 107.733 168.854 105.104 159.654C102.475 150.454 100.723 140.815 100.832 130.848C100.942 120.881 102.913 110.586 104.556 104.014C106.199 97.4427 107.514 94.595 108.171 93.1712C108.828 91.7474 108.828 91.7474 103.135 95.3707C97.4425 98.9939 86.0574 106.241 80.1343 127.487C74.2113 148.734 73.7507 183.98 63.0386 206.326C52.3265 228.671 31.3629 238.117 11.3208 241.342C-8.72136 244.567 -27.8419 241.572 -46.9624 238.577" stroke="white" stroke-width="0.5" stroke-miterlimit="22.9256" stroke-linecap="round"/>
</g>
</svg>
