<svg width="20" height="20" viewBox="0 0 20 20" fill="none" xmlns="http://www.w3.org/2000/svg">
<path d="M14.6649 6.63584L15.4425 5.85836C15.6867 5.61419 15.6867 5.21833 15.4425 4.97416C15.1983 4.73 14.8025 4.73 14.5583 4.97416L13.7433 5.78918C12.5866 4.90585 11.1475 4.375 9.58331 4.375C5.79248 4.375 2.70831 7.45917 2.70831 11.25C2.70831 15.0408 5.79248 18.125 9.58331 18.125C13.3741 18.125 16.4583 15.0408 16.4583 11.25C16.4583 9.47333 15.7749 7.85751 14.6649 6.63584ZM9.58331 16.875C6.48165 16.875 3.95831 14.3517 3.95831 11.25C3.95831 8.14833 6.48165 5.625 9.58331 5.625C12.685 5.625 15.2083 8.14833 15.2083 11.25C15.2083 14.3517 12.685 16.875 9.58331 16.875ZM11.6249 12C11.9008 12.2075 11.9567 12.5991 11.7492 12.875C11.6276 13.0383 11.4392 13.125 11.2484 13.125C11.1184 13.125 10.9867 13.0841 10.8742 13L9.20754 11.75C9.05087 11.6316 8.9575 11.4467 8.9575 11.25V8.33333C8.9575 7.98833 9.2375 7.70833 9.5825 7.70833C9.9275 7.70833 10.2075 7.98833 10.2075 8.33333V10.9375L11.6249 12ZM6.87498 2.5C6.87498 2.155 7.15498 1.875 7.49998 1.875H11.6666C12.0116 1.875 12.2916 2.155 12.2916 2.5C12.2916 2.845 12.0116 3.125 11.6666 3.125H7.49998C7.15498 3.125 6.87498 2.845 6.87498 2.5Z" fill="white" fill-opacity="0.5"/>
</svg>
